<svg viewBox="0 0 107 20" fill="none" xmlns="http://www.w3.org/2000/svg">
<g clip-path="url(#clip0_142_5)">
<path fill-rule="evenodd" clip-rule="evenodd" d="M0 0.75H19.25V19.1H0V0.75Z" fill="#363535"/>
<path fill-rule="evenodd" clip-rule="evenodd" d="M13.32 11.2838L9.35701 4.3418H17.283L13.32 11.2838ZM1.37601 4.3418H9.30101L5.33901 11.2838L1.37601 4.3418ZM9.35701 18.2658L5.39501 11.3238H13.32L9.35701 18.2658Z" fill="#F8F8FB"/>
<path fill-rule="evenodd" clip-rule="evenodd" d="M102.711 17.2109V16.3659L105.618 15.1489L102.711 13.9329V13.0879L106.784 14.7769V15.5209L102.711 17.2109ZM98.022 16.3659L100.928 15.1489L98.022 13.9329V13.0879L102.094 14.7769V15.5209L98.022 17.2109V16.3659ZM96.467 9.90088H100.151V10.6269H96.467V9.90088ZM94.676 9.20788H93.763V3.82588H91.862V3.02288H96.585V3.82588H94.676V9.20788ZM90.122 6.60588L91.981 9.20788H90.882L89.184 6.77388H89.116H88.052V9.20788H87.147V3.02288H89.125C89.564 3.02288 89.954 3.10188 90.295 3.25988C90.636 3.41688 90.9 3.63788 91.089 3.92288C91.278 4.20688 91.372 4.53488 91.372 4.90688C91.372 5.30688 91.261 5.65587 91.038 5.95487C90.816 6.25387 90.51 6.46988 90.122 6.60588ZM90.045 4.10388C89.798 3.90688 89.454 3.80888 89.015 3.80888H88.052V5.98887H89.015C89.454 5.98887 89.798 5.89288 90.045 5.70088C90.293 5.50988 90.417 5.24488 90.417 4.90688C90.417 4.56888 90.293 4.30188 90.045 4.10388ZM84.967 7.55188H82.458L81.85 9.20788H80.937L83.328 3.02288H84.105L86.59 9.20788H85.601L84.967 7.55188ZM83.683 4.20587L82.754 6.75787H84.663L83.683 4.20587ZM79.087 9.20788H78.174V3.82588H76.273V3.02288H80.996V3.82588H79.087V9.20788ZM73.472 5.38488C73.655 5.46088 73.904 5.54387 74.22 5.63387C74.636 5.75787 74.976 5.87888 75.238 5.99688C75.5 6.11488 75.724 6.29287 75.91 6.52887C76.095 6.76587 76.189 7.07888 76.189 7.46688C76.189 7.84488 76.097 8.17187 75.914 8.44687C75.731 8.72387 75.477 8.93488 75.153 9.08088C74.829 9.22788 74.456 9.30087 74.034 9.30087C73.442 9.30087 72.927 9.16088 72.488 8.88288C72.048 8.60388 71.758 8.23088 71.618 7.76288L72.353 7.34088C72.499 7.70088 72.716 7.97988 73.003 8.17688C73.29 8.37388 73.642 8.47287 74.059 8.47287C74.431 8.47287 74.72 8.39288 74.925 8.23188C75.131 8.07088 75.234 7.84787 75.234 7.55988C75.234 7.32888 75.168 7.13887 75.035 6.98987C74.903 6.84087 74.738 6.72488 74.541 6.64388C74.344 6.56188 74.076 6.46988 73.738 6.36888C73.327 6.24488 73 6.12788 72.758 6.01788C72.516 5.90788 72.309 5.74487 72.137 5.52787C71.965 5.31087 71.879 5.02488 71.879 4.67088C71.879 4.29888 71.975 3.98088 72.167 3.71588C72.358 3.45088 72.616 3.25287 72.94 3.11987C73.263 2.98787 73.625 2.92188 74.025 2.92188C74.577 2.92188 75.031 3.04288 75.386 3.28488C75.741 3.52688 75.977 3.84288 76.095 4.23088L75.36 4.66188C75.107 4.04788 74.651 3.74088 73.992 3.74088C73.642 3.74088 73.362 3.81888 73.151 3.97388C72.94 4.12888 72.834 4.33788 72.834 4.60288C72.834 4.79988 72.895 4.96088 73.016 5.08488C73.137 5.20888 73.289 5.30888 73.472 5.38488ZM71.71 10.6269H68.026V9.90088H71.71V10.6269ZM70.113 11.9219C70.648 11.9219 71.133 12.0509 71.567 12.3099C72.001 12.5689 72.341 12.9399 72.589 13.4209C72.837 13.9029 72.961 14.4649 72.961 15.1069C72.961 15.7549 72.835 16.3199 72.585 16.8009C72.334 17.2829 71.993 17.6529 71.563 17.9119C71.132 18.1709 70.648 18.3009 70.113 18.3009C69.578 18.3009 69.094 18.1729 68.66 17.9159C68.226 17.6599 67.885 17.2899 67.638 16.8049C67.39 16.3209 67.266 15.7549 67.266 15.1069C67.266 14.4649 67.39 13.9029 67.638 13.4209C67.885 12.9399 68.226 12.5689 68.66 12.3099C69.094 12.0509 69.578 11.9219 70.113 11.9219ZM68.229 15.1069C68.229 15.5749 68.307 15.9869 68.462 16.3449C68.616 16.7029 68.835 16.9799 69.116 17.1769C69.398 17.3739 69.73 17.4729 70.113 17.4729C70.496 17.4729 70.83 17.3739 71.115 17.1769C71.399 16.9799 71.619 16.7029 71.774 16.3449C71.928 15.9869 72.006 15.5749 72.006 15.1069C72.006 14.6399 71.928 14.2279 71.774 13.8729C71.619 13.5189 71.398 13.2429 71.11 13.0449C70.823 12.8479 70.491 12.7499 70.113 12.7499C69.736 12.7499 69.405 12.8479 69.121 13.0449C68.836 13.2429 68.616 13.5189 68.462 13.8729C68.307 14.2279 68.229 14.6399 68.229 15.1069ZM66.649 4.72988L64.824 7.59387H64.309L62.467 4.71287V9.20788H61.605V3.02288H62.365L64.588 6.54588L66.81 3.02288H67.528V9.20788H66.649V4.72988ZM56.746 3.01488H60.616V3.81687H57.65V5.63387H60.304V6.42788H57.65V8.40487H60.709V9.20788H56.746V3.01488ZM54.245 9.20788H53.333V3.82588H51.432V3.02288H56.155V3.82588H54.245V9.20788ZM48.631 5.38488C48.814 5.46088 49.063 5.54387 49.379 5.63387C49.795 5.75787 50.135 5.87888 50.397 5.99688C50.659 6.11488 50.883 6.29287 51.069 6.52887C51.254 6.76587 51.347 7.07888 51.347 7.46688C51.347 7.84488 51.256 8.17187 51.073 8.44687C50.889 8.72387 50.636 8.93488 50.312 9.08088C49.988 9.22788 49.615 9.30087 49.193 9.30087C48.601 9.30087 48.086 9.16088 47.646 8.88288C47.207 8.60388 46.917 8.23088 46.776 7.76288L47.511 7.34088C47.658 7.70088 47.875 7.97988 48.162 8.17688C48.449 8.37388 48.801 8.47287 49.218 8.47287C49.59 8.47287 49.878 8.39288 50.084 8.23188C50.29 8.07088 50.392 7.84787 50.392 7.55988C50.392 7.32888 50.326 7.13887 50.194 6.98987C50.062 6.84087 49.897 6.72488 49.7 6.64388C49.503 6.56188 49.235 6.46988 48.897 6.36888C48.486 6.24488 48.159 6.12788 47.917 6.01788C47.675 5.90788 47.468 5.74487 47.296 5.52787C47.124 5.31087 47.038 5.02488 47.038 4.67088C47.038 4.29888 47.134 3.98088 47.325 3.71588C47.517 3.45088 47.775 3.25287 48.099 3.11987C48.422 2.98787 48.784 2.92188 49.184 2.92188C49.736 2.92188 50.19 3.04288 50.545 3.28488C50.899 3.52688 51.136 3.84288 51.254 4.23088L50.519 4.66188C50.266 4.04788 49.81 3.74088 49.151 3.74088C48.801 3.74088 48.521 3.81888 48.31 3.97388C48.099 4.12888 47.993 4.33788 47.993 4.60288C47.993 4.79988 48.054 4.96088 48.175 5.08488C48.296 5.20888 48.448 5.30888 48.631 5.38488ZM44.681 9.20788H43.777V6.63088L41.554 3.01488H42.628L44.275 5.74388L45.83 3.01488H46.818L44.681 6.64787V9.20788ZM38.787 5.38488C38.97 5.46088 39.22 5.54387 39.535 5.63387C39.952 5.75787 40.291 5.87888 40.553 5.99688C40.815 6.11488 41.039 6.29287 41.225 6.52887C41.411 6.76587 41.504 7.07888 41.504 7.46688C41.504 7.84488 41.412 8.17187 41.229 8.44687C41.046 8.72387 40.793 8.93488 40.469 9.08088C40.145 9.22788 39.772 9.30087 39.349 9.30087C38.758 9.30087 38.242 9.16088 37.803 8.88288C37.364 8.60388 37.073 8.23088 36.933 7.76288L37.668 7.34088C37.814 7.70088 38.031 7.97988 38.318 8.17688C38.606 8.37388 38.958 8.47287 39.375 8.47287C39.747 8.47287 40.035 8.39288 40.241 8.23188C40.446 8.07088 40.549 7.84787 40.549 7.55988C40.549 7.32888 40.483 7.13887 40.35 6.98987C40.218 6.84087 40.053 6.72488 39.856 6.64388C39.659 6.56188 39.392 6.46988 39.053 6.36888C38.642 6.24488 38.316 6.12788 38.073 6.01788C37.831 5.90788 37.624 5.74487 37.452 5.52787C37.28 5.31087 37.195 5.02488 37.195 4.67088C37.195 4.29888 37.29 3.98088 37.482 3.71588C37.673 3.45088 37.931 3.25287 38.255 3.11987C38.579 2.98787 38.941 2.92188 39.341 2.92188C39.893 2.92188 40.346 3.04288 40.701 3.28488C41.056 3.52688 41.293 3.84288 41.411 4.23088L40.676 4.66188C40.422 4.04788 39.966 3.74088 39.307 3.74088C38.958 3.74088 38.678 3.81888 38.466 3.97388C38.255 4.12888 38.149 4.33788 38.149 4.60288C38.149 4.79988 38.21 4.96088 38.331 5.08488C38.452 5.20888 38.604 5.30888 38.787 5.38488ZM30.266 9.20788L32.581 3.02288H33.435L31.119 9.20788H30.266ZM27.072 18.2079L29.387 12.0229H30.241L27.926 18.2079H27.072ZM27.072 9.20788L29.387 3.02288H30.241L27.926 9.20788H27.072ZM23.879 18.2079L26.194 12.0229H27.047L24.732 18.2079H23.879ZM23.879 9.20788L26.194 3.02288H27.047L24.732 9.20788H23.879ZM33.435 12.0229L31.119 18.2079H30.266L32.581 12.0229H33.435ZM36.181 12.1159H34.913V18.3519H36.181V19.1459H34.052V11.3219H36.181V12.1159ZM33.342 9.90088H37.026V10.6269H33.342V9.90088ZM40.464 12.4749C40.859 12.7759 41.056 13.1889 41.056 13.7129C41.056 14.2929 40.799 14.7129 40.287 14.9719C41.031 15.2029 41.402 15.6959 41.402 16.4499C41.402 17.0079 41.208 17.4409 40.819 17.7469C40.431 18.0549 39.87 18.2079 39.138 18.2079H36.84V12.0229H38.884C39.544 12.0229 40.07 12.1739 40.464 12.4749ZM37.736 17.4139H39.011C39.49 17.4139 39.849 17.3279 40.089 17.1559C40.328 16.9839 40.448 16.7409 40.448 16.4249C40.448 16.1099 40.328 15.8629 40.089 15.6859C39.849 15.5079 39.49 15.4199 39.011 15.4199H37.736V17.4139ZM37.736 12.8169V14.6679H38.758C39.18 14.6679 39.51 14.5829 39.747 14.4139C39.983 14.2449 40.101 14.0169 40.101 13.7299C40.101 13.4429 39.983 13.2189 39.747 13.0579C39.51 12.8979 39.18 12.8169 38.758 12.8169H37.736ZM43.287 12.3099C43.72 12.0509 44.205 11.9219 44.74 11.9219C45.275 11.9219 45.759 12.0509 46.193 12.3099C46.627 12.5689 46.968 12.9399 47.216 13.4209C47.464 13.9029 47.587 14.4649 47.587 15.1069C47.587 15.7549 47.462 16.3199 47.211 16.8009C46.961 17.2829 46.62 17.6529 46.189 17.9119C45.758 18.1709 45.275 18.3009 44.74 18.3009C44.205 18.3009 43.72 18.1729 43.287 17.9159C42.853 17.6599 42.512 17.2899 42.264 16.8049C42.016 16.3209 41.893 15.7549 41.893 15.1069C41.893 14.4649 42.016 13.9029 42.264 13.4209C42.512 12.9399 42.853 12.5689 43.287 12.3099ZM43.088 16.3449C43.243 16.7029 43.461 16.9799 43.743 17.1769C44.024 17.3739 44.357 17.4729 44.74 17.4729C45.123 17.4729 45.457 17.3739 45.741 17.1769C46.025 16.9799 46.245 16.7029 46.4 16.3449C46.555 15.9869 46.633 15.5749 46.633 15.1069C46.633 14.6399 46.555 14.2279 46.4 13.8729C46.245 13.5189 46.024 13.2429 45.737 13.0449C45.45 12.8479 45.117 12.7499 44.74 12.7499C44.363 12.7499 44.031 12.8479 43.747 13.0449C43.463 13.2429 43.243 13.5189 43.088 13.8729C42.933 14.2279 42.856 14.6399 42.856 15.1069C42.856 15.5749 42.933 15.9869 43.088 16.3449ZM49.581 12.3099C50.015 12.0509 50.499 11.9219 51.035 11.9219C51.57 11.9219 52.054 12.0509 52.488 12.3099C52.922 12.5689 53.263 12.9399 53.51 13.4209C53.758 13.9029 53.882 14.4649 53.882 15.1069C53.882 15.7549 53.757 16.3199 53.506 16.8009C53.255 17.2829 52.915 17.6529 52.484 17.9119C52.053 18.1709 51.57 18.3009 51.035 18.3009C50.499 18.3009 50.015 18.1729 49.581 17.9159C49.148 17.6599 48.807 17.2899 48.559 16.8049C48.311 16.3209 48.187 15.7549 48.187 15.1069C48.187 14.4649 48.311 13.9029 48.559 13.4209C48.807 12.9399 49.148 12.5689 49.581 12.3099ZM49.383 16.3449C49.538 16.7029 49.756 16.9799 50.038 17.1769C50.319 17.3739 50.651 17.4729 51.035 17.4729C51.418 17.4729 51.752 17.3739 52.036 17.1769C52.32 16.9799 52.54 16.7029 52.695 16.3449C52.85 15.9869 52.928 15.5749 52.928 15.1069C52.928 14.6399 52.85 14.2279 52.695 13.8729C52.54 13.5189 52.319 13.2429 52.032 13.0449C51.745 12.8479 51.412 12.7499 51.035 12.7499C50.657 12.7499 50.326 12.8479 50.042 13.0449C49.757 13.2429 49.538 13.5189 49.383 13.8729C49.228 14.2279 49.151 14.6399 49.151 15.1069C49.151 15.5749 49.228 15.9869 49.383 16.3449ZM58.901 12.8259H56.991V18.2079H56.079V12.8259H54.178V12.0229H58.901V12.8259ZM62.467 19.6269H58.783V18.9009H62.467V19.6269ZM63.869 17.3969H66.843V18.2079H62.965V12.0229H63.869V17.3969ZM76.391 12.0229L78.876 18.2079H77.887L77.253 16.5519H74.744L74.135 18.2079H73.223L75.614 12.0229H76.391ZM76.949 15.7579L75.969 13.2059L75.039 15.7579H76.949ZM82.872 12.3859C83.356 12.6289 83.737 12.9829 84.013 13.4509C84.288 13.9189 84.427 14.4709 84.427 15.1069C84.427 15.7549 84.288 16.3109 84.013 16.7759C83.737 17.2409 83.358 17.5949 82.876 17.8399C82.395 18.0849 81.85 18.2079 81.241 18.2079H79.433V12.0229H81.241C81.844 12.0229 82.388 12.1439 82.872 12.3859ZM80.337 12.8089V17.4139H81.123C81.861 17.4139 82.437 17.2119 82.851 16.8099C83.265 16.4069 83.472 15.8389 83.472 15.1069C83.472 14.3799 83.265 13.8159 82.851 13.4129C82.437 13.0099 81.861 12.8089 81.123 12.8089H80.337ZM89.209 12.8169H86.243V14.6339H88.896V15.4279H86.243V17.4049H89.302V18.2079H85.339V12.0149H89.209V12.8169ZM93.345 12.2599C93.686 12.4169 93.95 12.6379 94.139 12.9229C94.328 13.2069 94.422 13.5349 94.422 13.9069C94.422 14.3069 94.311 14.6559 94.089 14.9549C93.866 15.2539 93.56 15.4699 93.172 15.6059L95.031 18.2079H93.932L92.234 15.7749H92.166H91.102V18.2079H90.198V12.0229H92.175C92.614 12.0229 93.004 12.1019 93.345 12.2599ZM91.102 12.8089V14.9889H92.065C92.504 14.9889 92.848 14.8929 93.096 14.7009C93.344 14.5099 93.468 14.2449 93.468 13.9069C93.468 13.5689 93.344 13.3019 93.096 13.1039C92.848 12.9069 92.504 12.8089 92.065 12.8089H91.102ZM96.247 12.1159H94.98V11.3219H97.109V19.1459H94.98V18.3519H96.247V12.1159Z" fill="#363535"/>
</g>
<defs>
<clipPath id="clip0_142_5">
<rect width="107" height="20" fill="white"/>
</clipPath>
</defs>
</svg>
