<svg 
 xmlns="http://www.w3.org/2000/svg"
 xmlns:xlink="http://www.w3.org/1999/xlink"
 width="26px" height="26px">
<path fill-rule="evenodd"  fill="rgb(47, 47, 47)"
 d="M12.995,25.995 C5.828,25.995 -0.003,20.164 -0.003,12.997 C-0.003,5.829 5.828,-0.002 12.995,-0.002 C15.097,-0.002 17.182,0.515 19.037,1.495 L16.636,3.896 C15.469,3.425 14.244,3.187 12.995,3.187 C10.793,3.187 8.765,3.925 7.126,5.155 L7.523,5.155 L12.982,10.614 L12.993,10.602 L12.995,10.605 L12.997,10.602 L13.006,10.611 L16.827,6.791 L16.797,11.595 L15.393,12.998 L21.018,18.623 C22.140,17.029 22.805,15.090 22.805,12.997 C22.805,11.630 22.519,10.299 21.954,9.038 L25.375,9.038 C25.785,10.314 25.993,11.646 25.993,12.997 C25.993,20.164 20.162,25.995 12.995,25.995 ZM4.968,7.375 C3.848,8.968 3.185,10.905 3.185,12.997 C3.185,15.090 3.850,17.029 4.972,18.623 L10.594,13.001 L4.968,7.375 ZM13.004,15.388 L12.993,15.399 L12.984,15.390 L7.527,20.847 L7.137,20.847 C8.774,22.072 10.798,22.806 12.995,22.806 C15.192,22.806 17.216,22.072 18.853,20.847 L18.470,20.847 L13.004,15.388 ZM21.605,6.791 L16.827,6.791 L21.605,2.012 L21.605,6.791 Z"/>
</svg>