<svg 
 xmlns="http://www.w3.org/2000/svg"
 xmlns:xlink="http://www.w3.org/1999/xlink"
 width="31px" height="28px">
<path fill-rule="evenodd"  fill="rgb(211, 211, 211)"
 d="M23.386,27.355 L23.386,20.935 L30.307,20.935 L30.307,27.355 L23.386,27.355 ZM23.386,0.642 L30.307,0.642 L30.307,17.984 L23.386,17.984 L23.386,0.642 ZM11.994,20.935 L18.915,20.935 L18.915,27.355 L11.994,27.355 L11.994,20.935 ZM11.994,0.642 L18.915,0.642 L18.915,17.984 L11.994,17.984 L11.994,0.642 ZM0.313,20.935 L7.233,20.935 L7.233,27.355 L0.313,27.355 L0.313,20.935 ZM0.313,0.642 L7.233,0.642 L7.233,17.984 L0.313,17.984 L0.313,0.642 Z"/>
</svg>