<svg 
 xmlns="http://www.w3.org/2000/svg"
 xmlns:xlink="http://www.w3.org/1999/xlink"
 width="29px" height="29px">
<path fill-rule="evenodd"  fill="rgb(47, 47, 47)"
 d="M13.299,23.400 L3.409,13.510 C3.389,13.783 3.367,14.056 3.367,14.334 C3.367,20.372 8.280,25.285 14.319,25.285 C20.358,25.285 25.271,20.372 25.271,14.334 C25.271,13.351 25.128,12.403 24.884,11.497 L28.173,11.497 C28.360,12.413 28.459,13.362 28.459,14.334 C28.459,22.131 22.116,28.474 14.319,28.474 C6.522,28.474 0.179,22.131 0.179,14.334 C0.179,6.537 6.522,0.194 14.319,0.194 C17.890,0.194 21.154,1.527 23.646,3.719 L21.385,5.980 C19.475,4.363 17.011,3.382 14.319,3.382 C9.216,3.382 4.930,6.895 3.720,11.626 L7.012,11.626 L13.299,17.912 L22.836,8.375 L22.802,13.897 L13.299,23.400 ZM28.328,2.883 L28.328,8.375 L22.836,8.375 L28.328,2.883 Z"/>
</svg>