<svg 
 xmlns="http://www.w3.org/2000/svg"
 xmlns:xlink="http://www.w3.org/1999/xlink"
 width="38px" height="34px">
<path fill-rule="evenodd"  fill="rgb(211, 211, 211)"
 d="M14.335,17.629 L14.335,14.771 L23.572,14.771 L21.394,12.634 L23.278,10.786 L26.029,13.486 L28.781,10.786 L30.664,12.634 L28.487,14.771 L37.724,14.771 L37.724,17.629 L14.335,17.629 ZM11.123,6.338 L11.123,10.274 L7.112,10.274 L7.112,6.338 L11.123,6.338 ZM28.661,3.829 L4.080,3.829 L4.080,27.949 L12.041,27.949 L12.041,31.545 L0.415,31.545 L0.415,0.233 L28.661,0.233 L32.326,0.233 L32.326,3.829 L32.326,9.089 L28.661,9.089 L28.661,3.829 ZM25.262,33.025 L15.681,33.025 L15.681,18.969 L25.262,18.969 L25.262,33.025 ZM36.378,33.025 L26.797,33.025 L26.797,18.969 L36.378,18.969 L36.378,33.025 Z"/>
</svg>