<svg xmlns="http://www.w3.org/2000/svg" xmlns:xlink="http://www.w3.org/1999/xlink" width="51px" height="8px">
    <path fill-rule="evenodd" fill="rgb(204, 204, 204)"
        d="M48.766,6.931 L48.766,5.368 L50.309,5.368 L50.309,6.931 L48.766,6.931 ZM31.796,5.368 L47.222,5.368 L47.222,6.931 L31.796,6.931 L31.796,5.368 ZM36.284,1.644 L41.054,1.644 L41.054,3.206 L36.284,3.206 L36.284,1.644 ZM31.796,1.644 L34.883,1.644 L34.883,3.206 L31.796,3.206 L31.796,1.644 ZM8.658,5.368 L30.255,5.368 L30.255,6.931 L8.658,6.931 L8.658,5.368 ZM16.370,1.644 L30.255,1.644 L30.255,3.206 L16.370,3.206 L16.370,1.644 ZM8.658,1.644 L14.829,1.644 L14.829,3.206 L8.658,3.206 L8.658,1.644 ZM0.315,0.638 L7.528,0.638 L7.528,7.737 L0.315,7.737 L0.315,0.638 ZM1.588,6.485 L6.255,6.485 L6.255,1.891 L1.588,1.891 L1.588,6.485 ZM1.728,2.915 L2.628,2.028 L6.115,5.460 L5.215,6.346 L1.728,2.915 Z" />
</svg>