<svg xmlns="http://www.w3.org/2000/svg" xmlns:xlink="http://www.w3.org/1999/xlink" width="38px" height="35px">
    <path fill-rule="evenodd" fill="rgb(211, 211, 211)"
        d="M16.294,34.140 L16.294,11.592 L32.511,11.592 C34.304,13.378 35.316,14.375 37.110,16.170 L37.110,34.140 L16.294,34.140 ZM19.330,21.626 L26.909,21.626 L26.909,19.639 L19.330,19.639 L19.330,21.626 ZM30.027,15.895 L19.330,15.895 L19.330,17.881 L30.027,17.881 L30.027,15.895 ZM11.695,6.962 L11.695,10.970 L7.668,10.970 L7.668,6.962 L11.695,6.962 ZM29.302,4.407 L4.623,4.407 L4.623,28.968 L12.616,28.968 L12.616,32.630 L0.944,32.630 L0.944,0.745 L29.302,0.745 L32.982,0.745 L32.982,4.407 L32.982,7.933 L29.302,7.933 L29.302,4.407 Z" />
</svg>