<svg xmlns="http://www.w3.org/2000/svg" viewBox="23.337 23.439 71.073 59.15" width="72" height="60">
    <path fill-rule="evenodd" fill="rgb(38, 37, 37)"
        d="M23.337,46.559 L23.337,38.943 L94.410,38.943 L94.410,46.559 L23.337,46.559 ZM76.092,29.774 L71.927,29.774 L71.927,24.437 L81.722,24.437 L83.228,37.193 L76.761,37.193 L76.092,29.774 ZM47.529,23.439 L70.218,23.439 L70.218,30.363 L47.529,30.363 L47.529,23.439 ZM41.065,37.193 L34.519,37.193 L36.212,24.437 L45.820,24.437 L45.820,29.774 L41.843,29.774 L41.065,37.193 ZM89.952,82.589 L27.824,82.589 L27.824,48.800 L89.952,48.800 L89.952,82.589 ZM45.598,55.641 L38.239,55.641 L38.239,75.747 L45.598,75.747 L45.598,55.641 ZM62.414,55.641 L55.055,55.641 L55.055,75.747 L62.414,75.747 L62.414,55.641 ZM79.230,55.641 L71.871,55.641 L71.871,75.747 L79.230,75.747 L79.230,55.641 Z" />
</svg>