<svg width="39" height="30" viewBox="0 0 39 30" fill="none" xmlns="http://www.w3.org/2000/svg">
<g clip-path="url(#clip0_230_47)">
<path fill-rule="evenodd" clip-rule="evenodd" d="M37.574 29.6881H19.386C18.794 29.6881 18.315 29.2081 18.315 28.6161V26.1521V21.2741C18.315 21.0111 18.412 20.7561 18.587 20.5601L21.963 16.7801C22.166 16.5531 22.456 16.4221 22.762 16.4221H34.198C34.504 16.4221 34.794 16.5531 34.997 16.7801L38.373 20.5601C38.548 20.7561 38.645 21.0111 38.645 21.2741V28.6161C38.645 29.2081 38.166 29.6881 37.574 29.6881ZM31.665 18.6151C31.665 18.4251 31.511 18.2721 31.322 18.2721H25.638C25.449 18.2721 25.295 18.4251 25.295 18.6151V19.9901C25.295 20.1791 25.449 20.3331 25.638 20.3331H31.322C31.511 20.3331 31.665 20.1791 31.665 19.9901V18.6151ZM22.762 16.4221C22.647 16.4221 22.535 16.4411 22.428 16.4761C22.535 16.4411 22.648 16.4221 22.762 16.4221ZM31.603 5.56108H35.512V14.1631H31.603V5.56108ZM20.278 15.2751L16.902 19.0541C16.356 19.6651 16.055 20.4541 16.055 21.2741V26.1521H7.78V5.56108H28.362V14.1631H22.761C21.814 14.1631 20.909 14.5681 20.278 15.2751ZM4.539 27.6951V26.1521H7.78V27.6951H4.539ZM0.630005 5.56108H4.539V26.1521H0.630005V5.56108ZM22.783 2.30208H12.946L12.805 4.23808H11.21V2.58408V0.434082H12.946H22.783H24.518V2.58408V4.23808H22.924L22.783 2.30208Z" fill="#D3D3D3"/>
</g>
<defs>
<clipPath id="clip0_230_47">
<rect width="39" height="30" fill="white"/>
</clipPath>
</defs>
</svg>







