<svg xmlns="http://www.w3.org/2000/svg" viewBox="23 23 82 63" width="82" height="63">
    <path fill-rule="evenodd" fill="rgb(38, 37, 37)"
        d="M102.499,85.689 L63.674,85.689 C62.411,85.689 61.387,84.665 61.387,83.401 L61.387,78.140 L61.387,67.728 C61.387,67.474 61.442,67.230 61.522,66.994 C61.546,66.924 61.578,66.862 61.609,66.795 C61.647,66.710 61.671,66.619 61.720,66.540 C61.671,66.619 61.647,66.710 61.609,66.795 C61.704,66.584 61.812,66.378 61.969,66.204 L69.174,58.136 C69.608,57.650 70.228,57.372 70.879,57.372 L95.294,57.372 C95.945,57.372 96.565,57.650 96.999,58.136 L104.204,66.204 C104.579,66.623 104.786,67.166 104.786,67.728 L104.786,83.401 C104.786,84.665 103.762,85.689 102.499,85.689 ZM89.885,62.051 C89.885,61.647 89.557,61.319 89.153,61.319 L77.020,61.319 C76.616,61.319 76.288,61.647 76.288,62.051 L76.288,64.987 C76.288,65.391 76.616,65.719 77.020,65.719 L89.153,65.719 C89.557,65.719 89.885,65.391 89.885,64.987 L89.885,62.051 ZM89.753,34.187 L98.098,34.187 L98.098,52.547 L89.753,52.547 L89.753,34.187 ZM65.577,54.921 L58.372,62.989 C57.206,64.294 56.564,65.977 56.564,67.728 L56.564,78.140 L38.898,78.140 L38.898,34.187 L82.835,34.187 L82.835,52.547 L70.879,52.547 C68.857,52.547 66.925,53.412 65.577,54.921 ZM31.980,81.435 L31.980,78.140 L38.898,78.140 L38.898,81.435 L31.980,81.435 ZM23.635,34.187 L31.980,34.187 L31.980,78.140 L23.635,78.140 L23.635,34.187 ZM70.924,27.229 L49.926,27.229 L49.625,31.362 L46.221,31.362 L46.221,27.832 L46.221,23.242 L49.926,23.242 L70.924,23.242 L74.630,23.242 L74.630,27.832 L74.630,31.362 L71.226,31.362 L70.924,27.229 Z" />
</svg>