<svg 
 xmlns="http://www.w3.org/2000/svg"
 xmlns:xlink="http://www.w3.org/1999/xlink"
 width="42px" height="42px">
<path fill-rule="evenodd"  stroke-width="2px" stroke="rgb(255, 255, 15)" fill="rgb(67, 67, 67)"
 d="M20.1000,5.640 C29.483,5.640 36.360,12.517 36.360,20.1000 C36.360,29.483 29.483,36.360 20.1000,36.360 C12.517,36.360 5.640,29.483 5.640,20.1000 C5.640,12.517 12.517,5.640 20.1000,5.640 Z"/>
<path fill-rule="evenodd"  fill="rgb(100, 100, 100)"
 d="M20.1000,9.617 C27.286,9.617 32.383,14.713 32.383,20.1000 C32.383,27.286 27.286,32.383 20.1000,32.383 C14.713,32.383 9.617,27.286 9.617,20.1000 C9.617,14.713 14.713,9.617 20.1000,9.617 Z"/>
<path fill-rule="evenodd"  fill="rgb(255, 255, 15)"
 d="M14.993,30.008 L14.993,13.986 L18.006,13.986 L18.006,12.011 L23.991,12.011 L23.991,13.986 L27.005,13.986 L27.005,30.008 L14.993,30.008 ZM25.090,16.120 L16.908,16.120 L16.908,27.973 L25.090,27.973 L25.090,16.120 ZM24.011,27.009 L17.987,27.009 L17.987,22.007 L24.011,22.007 L24.011,27.009 Z"/>
</svg>